<?xml version="1.0" encoding="utf-8"?>
<!-- Generator: Adobe Illustrator 21.0.2, SVG Export Plug-In . SVG Version: 6.00 Build 0)  -->
<svg version="1.1" id="Layer_1" xmlns="http://www.w3.org/2000/svg" xmlns:xlink="http://www.w3.org/1999/xlink" x="0px" y="0px"
	 viewBox="0 0 500 255" style="enable-background:new 0 0 500 255;" xml:space="preserve">
<style type="text/css">
	.st0{fill:#FFFFFF;stroke:#FFFFFF;stroke-miterlimit:10;}
</style>
<path class="st0" d="M401.3,241c29.8,0,71.9,0,71.9,0s-1-9.1-1.2-10.8c-7,0-14.7-1.1-19.6-4.5c-5.5-3.8-7.6-10.4-7.6-16.6v0.5V75.1
	c0-13.1-4.6-25.1-12.3-34.4c-9.8-12-24.7-19.7-41.4-19.7H21v17v-0.4h25.3C58.9,37.6,69,48.2,69,61.2h0.1v148.1
	c0,6.2-2.1,12.7-7.6,16.6c-4.9,3.4-12.7,4.5-19.7,4.5l-1,10.8h100.8c0,0-1-9.1-1.2-10.8c-7,0-14.7-1.1-19.6-4.5
	c-5.5-3.8-7.6-10.4-7.6-16.6V104.4c0-29.9,27.2-54.1,60.9-54.1S235,74.5,235,104.4v104.8c0,6.2-2.1,12.7-7.6,16.6
	c-4.9,3.4-12.7,4.5-19.7,4.5l-1,10.8h100.8l-1-10.8c-7.1,0-14.9-1.1-19.7-4.5c-5.5-3.8-7.6-10.4-7.6-16.6V104.4v-0.1
	c0-29.9,27.2-54.1,60.9-54.1v0.1c33.6,0,60.9,24.2,60.9,54.1v104.8h0.1c0,6.2-2.1,12.7-7.6,16.6c-4.9,3.4-12.7,4.5-19.7,4.5l-1,10.8
	C372.3,241,385,241,401.3,241z"/>
</svg>
