<?xml version="1.0" encoding="utf-8"?>
<!-- Generator: Adobe Illustrator 21.0.2, SVG Export Plug-In . SVG Version: 6.00 Build 0)  -->
<svg version="1.1" id="Layer_1" xmlns="http://www.w3.org/2000/svg" xmlns:xlink="http://www.w3.org/1999/xlink" x="0px" y="0px"
	 viewBox="0 0 500 500" enable-background="new 0 0 500 500" xml:space="preserve">
<path fill="#FFFFFF" stroke="#FFFFFF" stroke-miterlimit="10" d="M401.3,367c29.8,0,71.9,0,71.9,0s-1-9.1-1.2-10.8
	c-7,0-14.7-1.1-19.6-4.5c-5.5-3.8-7.6-10.4-7.6-16.6l0,0.5V201.1c0-13.1-4.6-25.1-12.3-34.4c-9.8-12-24.7-19.7-41.4-19.7H21v17v-0.4
	h25.3c12.6,0,22.7,10.6,22.7,23.6h0.1v148.1c0,6.2-2.1,12.7-7.6,16.6c-4.9,3.4-12.7,4.5-19.7,4.5l-1,10.8h100.8c0,0-1-9.1-1.2-10.8
	c-7,0-14.7-1.1-19.6-4.5c-5.5-3.8-7.6-10.4-7.6-16.6V230.4c0-29.9,27.2-54.1,60.9-54.1s60.9,24.2,60.9,54.1c0,0,0,104.8,0,104.8
	c0,6.2-2.1,12.7-7.6,16.6c-4.9,3.4-12.7,4.5-19.7,4.5l-1,10.8h100.8l-1-10.8c-7.1,0-14.9-1.1-19.7-4.5c-5.5-3.8-7.6-10.4-7.6-16.6
	V230.4v-0.1c0-29.9,27.2-54.1,60.9-54.1v0.1c33.6,0,60.9,24.2,60.9,54.1v104.8l0.1,0c0,6.2-2.1,12.7-7.6,16.6
	c-4.9,3.4-12.7,4.5-19.7,4.5l-1,10.8C372.3,367,385,367,401.3,367z"/>
</svg>
