<svg id="logo-dark" xmlns="http://www.w3.org/2000/svg" data-name="logo-dark" viewBox="0 0 432.4 211.7"><defs><style>  
  .arch-path {
    fill: #FFFFFF;
  }
</style></defs><path class="arch-path" d="M28.4 179.9V31.8c0-6.2-2.1-12.7-7.6-16.6-4.8-3.4-12.5-4.5-19.6-4.5l-1.1-10.7H432.4L431.3 10.8c-7 0-14.7 1.1-19.6 4.5-5.5 3.9-7.6 10.4-7.6 16.6h0l0.1 148.5 0-0.5c0 6.2 2.1 12.7 7.6 16.6 4.8 3.4 12.5 4.5 19.6 4.5L432.4 211.6H331.6l1-10.7c7.1 0 14.9-1.1 19.8-4.5 5.5-3.8 7.6-10.4 7.6-16.6l-0.1 0V75.1c0-29.9-27.2-54.1-60.9-54.1v-0.1c-33.6 0-60.9 24.2-60.9 54.2V179.9c0 6.2 2.1 12.7 7.6 16.6 4.8 3.4 12.5 4.5 19.6 4.5l1.2 10.8H165.8l1-10.7c7.1 0 14.9-1.1 19.8-4.5 5.5-3.8 7.6-10.4 7.6-16.6 0 0 0-104.8 0-104.8 0-29.9-27.2-54.1-60.9-54.1s-60.9 24.2-60.9 54.2V179.9c0 6.2 2.1 12.7 7.6 16.6 4.8 3.4 12.5 4.5 19.6 4.5l1.2 10.8H0l1-10.7c7.1 0 14.9-1.1 19.8-4.5 5.5-3.8 7.6-10.4 7.6-16.6"/></svg>