<?xml version="1.0" encoding="UTF-8" standalone="no"?>
<svg
   xmlns:dc="http://purl.org/dc/elements/1.1/"
   xmlns:cc="http://creativecommons.org/ns#"
   xmlns:rdf="http://www.w3.org/1999/02/22-rdf-syntax-ns#"
   xmlns:svg="http://www.w3.org/2000/svg"
   xmlns="http://www.w3.org/2000/svg"
   xmlns:xlink="http://www.w3.org/1999/xlink"
   xmlns:sodipodi="http://sodipodi.sourceforge.net/DTD/sodipodi-0.dtd"
   xmlns:inkscape="http://www.inkscape.org/namespaces/inkscape"
   id="logo-dark"
   data-name="logo-dark"
   viewBox="0 0 743.02932 853.52115"
   version="1.1"
   sodipodi:docname="logo_light_hex.svg"
   width="7.7398887in"
   height="8.8908453in"
   inkscape:version="0.92.4 (f8dce91, 2019-08-02)">
  <metadata
     id="metadata11">
    <rdf:RDF>
      <cc:Work
         rdf:about="">
        <dc:format>image/svg+xml</dc:format>
        <dc:type
           rdf:resource="http://purl.org/dc/dcmitype/StillImage" />
        <dc:title />
      </cc:Work>
    </rdf:RDF>
  </metadata>
  <sodipodi:namedview
     pagecolor="#ffffff"
     bordercolor="#666666"
     borderopacity="1"
     objecttolerance="10"
     gridtolerance="10"
     guidetolerance="10"
     inkscape:pageopacity="1"
     inkscape:pageshadow="2"
     inkscape:window-width="1869"
     inkscape:window-height="1025"
     id="namedview9"
     showgrid="false"
     inkscape:zoom="0.44354728"
     inkscape:cx="1086.8479"
     inkscape:cy="334.11224"
     inkscape:window-x="1971"
     inkscape:window-y="27"
     inkscape:window-maximized="1"
     inkscape:current-layer="logo-dark"
     inkscape:pagecheckerboard="false"
     inkscape:snap-bbox="true"
     inkscape:snap-bbox-edge-midpoints="false"
     units="in"
     inkscape:snap-global="true"
     inkscape:snap-object-midpoints="true"
     inkscape:snap-nodes="false" />
  <defs
     id="defs4">
    <linearGradient
       inkscape:collect="always"
       id="linearGradient831">
      <stop
         style="stop-color:#ffffff;stop-opacity:1;"
         offset="0"
         id="stop827" />
      <stop
         style="stop-color:#ffffff;stop-opacity:0;"
         offset="1"
         id="stop829" />
    </linearGradient>
    <style
       id="style2">  
  .arch-path {
    fill: #323232;
  }
</style>
    <linearGradient
       inkscape:collect="always"
       xlink:href="#linearGradient831"
       id="linearGradient833"
       x1="14.594593"
       y1="53.498386"
       x2="27.534374"
       y2="31.066019"
       gradientUnits="userSpaceOnUse" />
    <linearGradient
       inkscape:collect="always"
       xlink:href="#linearGradient831"
       id="linearGradient836"
       gradientUnits="userSpaceOnUse"
       x1="14.594593"
       y1="53.498386"
       x2="23.707123"
       y2="37.90189"
       gradientTransform="matrix(8.1783917,0,0,8.1633789,-424.24587,-649.9029)" />
    <linearGradient
       inkscape:collect="always"
       xlink:href="#linearGradient831"
       id="linearGradient836-1"
       gradientUnits="userSpaceOnUse"
       x1="14.594593"
       y1="53.498386"
       x2="25.331261"
       y2="35.21508"
       gradientTransform="matrix(8.1783917,0,0,8.1633789,-218.19498,462.48688)" />
  </defs>
  <path
     sodipodi:type="star"
     style="opacity:1;fill:#2c3e50;fill-opacity:1;stroke:none;stroke-width:0.89318466;stroke-linecap:butt;stroke-miterlimit:4;stroke-dasharray:none;stroke-dashoffset:0;stroke-opacity:1"
     id="path818"
     sodipodi:sides="6"
     sodipodi:cx="-51.023994"
     sodipodi:cy="22.590691"
     sodipodi:r1="35.644875"
     sodipodi:r2="30.869368"
     sodipodi:arg1="0.52254746"
     sodipodi:arg2="1.0461462"
     inkscape:flatsided="true"
     inkscape:rounded="0"
     inkscape:randomized="0"
     d="M -20.135908,40.380665 -50.98652,58.235545 -81.874607,40.445571 -81.912081,4.8007166 -51.061468,-13.054164 -20.173382,4.7358097 Z"
     transform="matrix(11.218509,0,0,11.173322,943.94422,174.10066)" />
  <path
     transform="rotate(149.46237)"
     d="m -452.77541,-473.28333 a 297.26855,299.84799 0 0 1 298.14297,1.38166 297.26855,299.84799 0 0 1 147.0014523,261.63787 l -297.2545423,-2.91149 z"
     sodipodi:end="0.0097100359"
     sodipodi:start="4.1916793"
     sodipodi:ry="299.84799"
     sodipodi:rx="297.26855"
     sodipodi:cy="-213.17529"
     sodipodi:cx="-304.88553"
     sodipodi:type="arc"
     id="path825"
     style="opacity:0.25;fill:url(#linearGradient836);fill-opacity:1;fill-rule:nonzero;stroke:none;stroke-width:3;stroke-linecap:butt;stroke-miterlimit:4;stroke-dasharray:none;stroke-dashoffset:0;stroke-opacity:1" />
  <path
     sodipodi:type="star"
     style="opacity:1;fill:none;fill-opacity:1;stroke:#0e151a;stroke-width:2.1560638;stroke-linecap:butt;stroke-miterlimit:4;stroke-dasharray:none;stroke-dashoffset:0;stroke-opacity:1"
     id="path818-8"
     sodipodi:sides="6"
     sodipodi:cx="-51.023994"
     sodipodi:cy="22.590691"
     sodipodi:r1="35.644875"
     sodipodi:r2="30.869368"
     sodipodi:arg1="0.52254746"
     sodipodi:arg2="1.0461462"
     inkscape:flatsided="true"
     inkscape:rounded="0"
     inkscape:randomized="0"
     d="M -20.135908,40.380665 -50.98652,58.235545 -81.874607,40.445571 -81.912081,4.8007166 -51.061468,-13.054164 -20.173382,4.7358097 Z"
     transform="matrix(11.621901,0,0,11.568569,964.51048,165.41859)" />
  <path
     transform="rotate(-30.53763)"
     d="M -246.72456,639.1065 A 297.26855,299.84799 0 0 1 51.418412,640.48816 297.26855,299.84799 0 0 1 198.41986,902.12603 L -98.834679,899.21454 Z"
     sodipodi:end="0.0097100359"
     sodipodi:start="4.1916793"
     sodipodi:ry="299.84799"
     sodipodi:rx="297.26855"
     sodipodi:cy="899.21454"
     sodipodi:cx="-98.834679"
     sodipodi:type="arc"
     id="path825-0"
     style="opacity:0.25;fill:url(#linearGradient836-1);fill-opacity:1;fill-rule:nonzero;stroke:none;stroke-width:3;stroke-linecap:butt;stroke-miterlimit:4;stroke-dasharray:none;stroke-dashoffset:0;stroke-opacity:1" />
  <g
     id="g845"
     transform="translate(16.61783,50.662311)">
    <path
       style="fill:#ffffff;stroke-width:0.99999976"
       inkscape:connector-curvature="0"
       id="path6"
       d="M 126.85519,392.42641 V 215.69604 c 0,-7.39856 -2.51551,-15.15514 -9.10374,-19.80907 -5.74973,-4.05729 -14.97325,-5.36993 -23.478052,-5.36993 l -1.317646,-12.7685 H 610.7905 l -1.31763,12.88784 c -8.38502,0 -17.60851,1.31264 -23.47804,5.36992 -6.58823,4.65394 -9.10375,12.41051 -9.10375,19.80908 v 0 l 0.11975,177.20768 v -0.59668 c 0,7.39856 2.51548,15.15513 9.10369,19.80908 5.74976,4.05726 14.97329,5.3699 23.47805,5.3699 l 1.19799,12.64918 H 490.04631 l 1.19786,-12.76849 c 8.50479,0 17.84811,-1.31265 23.71762,-5.3699 6.58821,-4.53465 9.10373,-12.41052 9.10373,-19.80909 h -0.12017 V 267.36669 c 0,-35.68019 -32.58178,-64.55847 -72.94963,-64.55847 v -0.1193 c -40.2481,0 -72.94969,28.87829 -72.94969,64.67782 v 125.05969 c 0,7.39856 2.51552,15.15514 9.10374,19.80904 5.74973,4.0573 14.97324,5.36995 23.47807,5.36995 l 1.43742,12.88783 H 291.4409 l 1.19785,-12.7685 c 8.50481,0 17.84812,-1.31264 23.71763,-5.36994 6.58822,-4.53457 9.10374,-12.41048 9.10374,-19.80909 0,0 0,-125.05967 0,-125.05967 0,-35.6802 -32.58181,-64.55849 -72.94966,-64.55849 -40.36788,0 -72.94965,28.87828 -72.94965,64.67782 v 124.82105 c 0,7.39856 2.51549,15.15514 9.10373,19.80909 5.74972,4.05725 14.97324,5.3699 23.47804,5.3699 l 1.43744,12.88783 H 92.835925 l 1.197862,-12.7685 c 8.504813,0 17.848113,-1.31264 23.717633,-5.36994 6.58822,-4.53457 9.10373,-12.41048 9.10373,-19.80909"
       class="arch-path" />
    <text
       transform="scale(1.0019671,0.99803677)"
       id="text830"
       y="533.61865"
       x="11.425523"
       style="font-style:normal;font-variant:normal;font-weight:bold;font-stretch:normal;font-size:102.30875397px;line-height:1.25;font-family:'DejaVu Serif';-inkscape-font-specification:'DejaVu Serif, Bold';font-variant-ligatures:normal;font-variant-caps:normal;font-variant-numeric:normal;font-feature-settings:normal;text-align:start;letter-spacing:0px;word-spacing:0px;writing-mode:lr-tb;text-anchor:start;fill:#ffffff;fill-opacity:1;stroke:#ffffff;stroke-width:0.99999982"
       xml:space="preserve"><tspan
         style="font-style:normal;font-variant:normal;font-weight:bold;font-stretch:normal;font-size:102.30875397px;font-family:'DejaVu Serif';-inkscape-font-specification:'DejaVu Serif, Bold';font-variant-ligatures:normal;font-variant-caps:normal;font-variant-numeric:normal;font-feature-settings:normal;text-align:start;writing-mode:lr-tb;text-anchor:start;fill:#ffffff;stroke:#ffffff;stroke-width:0.99999982"
         y="533.61865"
         x="11.425523"
         id="tspan828"
         sodipodi:role="line">MetaBridge</tspan></text>
  </g>
</svg>
