<?xml version="1.0" standalone="no"?>
<!DOCTYPE svg PUBLIC "-//W3C//DTD SVG 20010904//EN"
 "http://www.w3.org/TR/2001/REC-SVG-20010904/DTD/svg10.dtd">
<svg version="1.0" xmlns="http://www.w3.org/2000/svg"
 width="700.000000pt" height="700.000000pt" viewBox="0 0 700.000000 700.000000"
 preserveAspectRatio="xMidYMid meet">
<metadata>
Created by potrace 1.11, written by Peter Selinger 2001-2013
</metadata>
<g transform="translate(0.000000,700.000000) scale(0.100000,-0.100000)"
fill="#000000" stroke="none">
<path d="M289 4935 c0 -8 -1 -53 -1 -100 0 -47 1 -96 1 -109 l1 -24 198 0
c214 0 253 -6 323 -51 53 -33 89 -76 121 -147 l23 -49 2 -1105 c2 -1079 2
-1106 -18 -1156 -40 -105 -130 -159 -281 -171 -46 -3 -78 -11 -79 -17 0 -6 -2
-20 -4 -30 -2 -10 -5 -42 -6 -70 l-3 -51 713 -3 713 -2 -6 47 c-17 131 -12
123 -67 123 -27 0 -51 0 -54 1 -166 35 -218 74 -258 193 -15 43 -16 132 -16
840 l0 791 23 90 c13 50 34 110 46 135 182 357 617 534 1033 419 312 -87 546
-338 583 -626 9 -74 9 -1552 0 -1615 -10 -69 -51 -135 -104 -169 -47 -30 -148
-56 -221 -58 -24 0 -46 -2 -47 -4 -2 -2 -6 -39 -10 -83 l-6 -80 708 0 709 1
-1 50 c-1 28 -2 64 -3 81 l-1 31 -79 6 c-180 14 -278 90 -299 232 -4 28 -7
401 -6 830 2 756 2 782 23 858 102 381 501 625 939 573 133 -15 293 -75 402
-149 99 -68 216 -204 259 -302 7 -16 17 -37 21 -46 10 -20 27 -81 37 -134 4
-22 7 -404 8 -850 l0 -810 -25 -49 c-33 -64 -87 -109 -157 -130 -70 -20 -95
-24 -150 -25 -46 -1 -46 -1 -58 -111 l-5 -55 710 0 711 0 -6 75 c-3 41 -9 78
-13 82 -4 3 -34 9 -67 12 -175 16 -263 73 -297 190 -9 30 -12 302 -14 1041 -1
550 -4 1016 -7 1036 -20 132 -88 285 -169 382 -118 141 -286 236 -469 266 -46
8 -844 11 -2682 11 -2319 0 -2617 -2 -2618 -15z"/>
</g>
</svg>
