<?xml version="1.0" standalone="no"?>
<!DOCTYPE svg PUBLIC "-//W3C//DTD SVG 20010904//EN"
 "http://www.w3.org/TR/2001/REC-SVG-20010904/DTD/svg10.dtd">
<svg version="1.0" xmlns="http://www.w3.org/2000/svg"
 width="1728.000000pt" height="1728.000000pt" viewBox="0 0 1728.000000 1728.000000"
 preserveAspectRatio="xMidYMid meet">
<metadata>
Created by potrace 1.11, written by Peter Selinger 2001-2013
</metadata>
<g transform="translate(0.000000,1728.000000) scale(0.100000,-0.100000)"
fill="#000000" stroke="none">
<path d="M6 12820 c2 -27 6 -62 8 -77 3 -16 8 -64 12 -108 3 -44 8 -93 11
-110 2 -16 5 -40 6 -52 2 -12 5 -24 8 -27 2 -3 54 -7 114 -11 115 -5 170 -11
219 -21 16 -3 40 -8 55 -9 170 -20 356 -105 470 -215 40 -39 69 -70 64 -70 -4
0 -3 -4 2 -8 15 -10 50 -66 47 -74 -1 -5 3 -8 8 -8 6 0 10 -9 10 -20 0 -11 4
-20 8 -20 7 0 50 -115 59 -160 8 -35 13 -68 19 -120 8 -68 8 -6024 0 -6135 -3
-44 -15 -111 -26 -150 -11 -38 -22 -74 -24 -80 -4 -15 -50 -109 -56 -115 -3
-3 -12 -18 -20 -33 -23 -45 -130 -151 -190 -189 -61 -38 -164 -85 -201 -92
-13 -3 -26 -5 -29 -6 -3 -2 -8 -2 -13 -1 -4 0 -7 -3 -7 -7 0 -4 -10 -9 -22
-10 -25 -2 -40 -5 -78 -15 -14 -4 -45 -9 -70 -12 -25 -2 -55 -7 -68 -9 -12 -3
-80 -8 -150 -11 -70 -4 -128 -8 -130 -9 -3 -3 -12 -85 -17 -161 -2 -27 -4 -50
-5 -50 -1 0 -3 -18 -5 -40 -1 -22 -5 -70 -9 -108 l-6 -67 2015 0 2014 0 -4 35
c-8 56 -16 137 -20 180 -20 228 -17 216 -63 215 -61 -1 -253 15 -332 29 -44 8
-131 30 -215 54 -5 2 -21 9 -35 17 -14 7 -26 12 -28 10 -6 -5 -114 55 -139 77
-13 13 -27 23 -30 23 -11 0 -98 95 -129 141 -26 37 -75 132 -79 149 0 3 -8 28
-17 55 -9 28 -20 70 -24 95 -3 25 -9 56 -12 70 -8 39 -7 4385 1 4475 9 96 13
119 32 225 23 130 104 359 178 505 43 84 176 298 197 315 3 3 21 25 40 50 19
25 53 64 76 88 23 23 40 42 38 42 -10 0 188 182 251 230 22 16 53 40 68 53 64
50 249 161 367 219 69 35 127 63 130 64 3 0 19 6 35 13 52 22 298 101 329 107
16 3 33 7 38 10 8 5 28 10 83 19 17 3 37 8 45 10 8 2 37 6 64 10 27 3 52 8 55
10 4 2 40 6 81 10 41 4 89 9 105 11 50 7 388 7 430 1 22 -4 65 -9 95 -12 133
-15 403 -69 460 -92 8 -3 17 -7 20 -8 70 -21 146 -48 170 -60 16 -8 32 -15 35
-15 11 -1 45 -14 115 -47 136 -63 161 -77 275 -146 44 -27 201 -137 220 -154
11 -10 37 -31 59 -47 68 -51 265 -254 326 -336 14 -18 42 -55 63 -82 20 -26
34 -48 30 -48 -3 0 3 -10 14 -22 39 -44 182 -315 199 -378 2 -8 16 -49 30 -90
27 -76 53 -168 59 -205 2 -11 10 -65 20 -120 9 -55 18 -143 20 -195 2 -52 4
-95 5 -95 1 0 2 -15 3 -33 1 -17 0 -32 -3 -32 -3 0 -4 -26 -2 -57 2 -32 2 -67
2 -78 -1 -11 -1 -26 -1 -32 1 -7 1 -19 2 -25 0 -7 -1 -32 -3 -55 -2 -23 0 -39
4 -37 4 3 4 -6 -1 -19 -5 -13 -5 -30 -1 -37 5 -8 5 -19 -1 -26 -7 -8 -6 -14 1
-19 6 -3 7 -11 4 -17 -10 -16 -11 -59 -2 -85 4 -13 4 -23 0 -23 -9 0 -8 -47 0
-55 3 -3 2 -21 -2 -40 -5 -24 -4 -33 3 -28 6 4 7 1 2 -6 -9 -15 -11 -109 -2
-117 3 -3 2 -16 -3 -28 -4 -13 -4 -29 0 -36 5 -8 5 -19 -1 -26 -7 -8 -6 -14 1
-19 6 -3 7 -11 4 -17 -10 -16 -11 -59 -2 -85 4 -13 4 -23 0 -23 -9 0 -8 -47 0
-55 3 -3 2 -21 -2 -40 -5 -24 -4 -33 3 -28 6 4 7 1 2 -6 -9 -15 -11 -109 -2
-117 3 -3 2 -16 -3 -28 -4 -13 -4 -29 0 -36 5 -8 5 -19 -1 -26 -7 -8 -6 -14 1
-19 6 -3 7 -11 4 -17 -10 -16 -11 -59 -2 -85 4 -13 4 -23 0 -23 -9 0 -8 -47 0
-55 3 -3 2 -21 -2 -40 -5 -24 -4 -33 3 -28 6 4 7 1 2 -6 -9 -15 -11 -109 -2
-117 3 -3 2 -16 -3 -28 -4 -13 -4 -29 0 -36 5 -8 5 -19 -1 -26 -7 -8 -6 -14 1
-19 6 -3 7 -11 4 -17 -10 -16 -11 -59 -2 -85 4 -13 4 -23 0 -23 -9 0 -8 -47 0
-55 3 -3 2 -21 -2 -40 -5 -24 -4 -33 3 -28 6 4 7 1 2 -6 -9 -15 -11 -109 -2
-117 3 -3 2 -16 -3 -28 -4 -13 -4 -29 0 -36 5 -8 5 -19 -1 -26 -7 -8 -6 -14 1
-19 6 -3 7 -11 4 -17 -10 -16 -11 -59 -2 -85 4 -13 4 -23 0 -23 -9 0 -8 -47 0
-55 3 -3 2 -21 -2 -40 -5 -24 -4 -33 3 -28 6 4 7 1 2 -6 -4 -7 -7 -36 -6 -64
1 -29 1 -61 1 -72 -2 -29 -1 -36 3 -72 2 -18 1 -33 -2 -33 -8 0 -5 -109 3
-117 3 -3 1 -14 -4 -24 -6 -10 -6 -20 -1 -23 5 -3 5 -21 1 -41 -5 -24 -4 -33
3 -28 6 4 7 1 2 -6 -9 -15 -11 -109 -2 -117 3 -3 2 -16 -3 -28 -4 -13 -4 -29
0 -36 5 -8 5 -19 -1 -26 -7 -8 -6 -14 1 -19 6 -3 7 -11 4 -17 -10 -16 -11 -59
-2 -85 4 -13 4 -23 0 -23 -9 0 -8 -47 0 -55 3 -3 2 -21 -2 -40 -5 -24 -4 -33
3 -28 6 4 7 1 2 -6 -9 -15 -11 -109 -2 -117 3 -3 2 -16 -3 -28 -4 -13 -4 -29
0 -36 5 -8 5 -19 -1 -26 -7 -8 -6 -14 1 -19 6 -3 7 -11 4 -17 -10 -16 -11 -59
-2 -85 4 -13 4 -23 0 -23 -9 0 -8 -47 0 -55 3 -3 2 -21 -2 -40 -5 -24 -4 -33
3 -28 6 4 7 1 2 -6 -7 -12 -10 -93 -5 -116 1 -5 2 -12 1 -15 -1 -3 -4 -36 -6
-75 -7 -107 -33 -220 -67 -287 -10 -21 -15 -38 -11 -38 5 0 3 -4 -2 -8 -6 -4
-24 -29 -39 -56 -39 -68 -70 -102 -161 -180 -41 -36 -196 -112 -217 -108 -5 1
-8 -2 -8 -6 0 -5 -6 -9 -12 -9 -7 0 -42 -8 -78 -18 -36 -9 -78 -19 -95 -21
-16 -3 -39 -6 -50 -9 -45 -9 -216 -23 -306 -24 -42 -1 -45 -3 -46 -28 0 -16
-4 -50 -7 -78 -6 -49 -9 -84 -22 -230 -3 -38 -7 -74 -7 -80 -1 -7 678 -11
2016 -13 1369 -1 2016 1 2012 8 -4 6 -8 34 -11 63 -2 28 -6 70 -9 92 -2 22 -7
65 -10 95 -9 92 -17 165 -19 167 -1 1 -55 5 -121 8 -66 3 -131 8 -145 10 -14
2 -46 6 -71 10 -50 6 -51 6 -149 30 -74 17 -104 28 -175 60 -27 12 -54 23 -59
23 -5 0 -12 4 -15 9 -3 4 -24 20 -46 35 -38 25 -121 98 -112 98 2 0 -11 16
-29 36 -19 19 -34 41 -34 49 0 7 -3 15 -7 17 -15 6 -76 146 -88 198 -23 102
-28 139 -30 208 -2 46 -5 85 -8 88 -2 2 -1 22 3 44 4 21 4 44 -1 51 -4 7 -3
21 2 30 6 12 5 20 -1 24 -6 4 -8 10 -5 15 8 14 9 165 1 179 -4 6 -2 11 4 11 7
0 8 6 0 19 -7 13 -7 22 0 26 7 4 7 13 0 26 -8 13 -7 19 0 19 7 0 8 6 1 19 -6
10 -8 21 -4 24 8 8 8 85 0 93 -3 4 -2 15 3 25 6 10 6 20 2 23 -5 3 -6 28 -2
56 4 28 3 53 -2 56 -4 3 -4 14 2 24 7 13 7 21 0 25 -6 4 -8 10 -5 15 8 14 9
165 1 179 -4 6 -2 11 4 11 7 0 8 6 0 19 -7 13 -7 22 0 26 7 4 7 13 0 26 -8 13
-7 19 0 19 7 0 8 6 1 19 -6 10 -8 21 -4 24 8 8 8 85 0 93 -3 4 -2 15 3 25 6
10 7 20 2 23 -9 5 -6 81 3 96 3 6 2 10 -4 10 -7 0 -7 8 -2 23 5 13 5 30 0 39
-6 10 -6 19 0 23 7 3 7 15 1 30 -6 15 -6 27 0 30 7 4 6 13 0 26 -8 13 -7 19 0
19 7 0 8 6 1 19 -6 10 -8 21 -4 24 8 8 8 85 0 93 -3 4 -2 15 3 25 7 12 7 20 0
24 -6 4 -8 10 -5 15 8 14 9 165 1 179 -4 6 -2 11 4 11 7 0 8 6 0 19 -7 13 -7
22 0 26 7 4 7 13 0 26 -8 13 -7 19 0 19 7 0 8 6 1 19 -6 10 -8 21 -4 24 8 8 8
85 0 93 -3 4 -2 15 3 25 7 12 7 20 0 24 -6 4 -8 10 -5 15 8 14 9 165 1 179 -4
6 -2 11 4 11 7 0 8 6 0 19 -7 13 -7 22 0 26 7 4 7 13 0 26 -8 13 -7 19 0 19 7
0 8 6 1 18 -6 11 -6 24 0 34 6 10 6 19 0 23 -7 4 -7 15 -1 30 6 16 6 25 0 25
-6 0 -6 9 -1 23 5 13 5 30 0 39 -6 10 -6 19 0 23 7 3 7 15 1 30 -6 15 -6 27 0
30 7 4 6 13 0 26 -8 13 -7 19 0 19 7 0 8 6 1 19 -6 10 -8 21 -4 24 8 8 8 85 0
93 -3 4 -2 15 3 25 7 12 7 20 0 24 -6 4 -8 10 -5 15 8 14 9 165 1 179 -4 6 -2
11 4 11 7 0 8 6 0 19 -7 13 -7 22 0 26 7 4 7 13 0 26 -8 13 -7 19 0 19 7 0 8
6 1 19 -6 10 -8 21 -4 24 8 8 8 85 0 93 -3 4 -2 15 3 25 7 12 7 20 0 24 -6 4
-8 10 -5 15 8 14 9 165 1 179 -4 6 -2 11 4 11 7 0 8 6 0 19 -7 13 -7 22 0 26
7 4 7 13 0 26 -8 13 -7 19 0 19 7 0 8 6 1 18 -6 11 -6 24 0 34 6 10 6 19 0 23
-7 4 -7 15 -1 30 6 16 6 25 0 25 -6 0 -6 9 -1 23 5 13 5 30 1 37 -5 8 -6 19
-2 25 7 9 8 31 2 45 -4 12 -4 90 0 90 3 0 5 35 5 78 1 100 14 228 29 280 3 9
7 33 10 52 3 19 13 60 21 90 9 30 17 60 18 65 2 6 6 16 10 23 5 6 5 12 1 12
-3 0 -1 7 6 15 7 8 9 15 5 15 -4 0 -2 7 5 15 7 8 10 15 7 15 -7 0 51 140 65
158 6 6 8 12 5 12 -6 0 10 32 81 160 78 143 254 367 370 474 19 17 51 47 72
67 83 79 279 221 380 276 19 10 54 31 77 46 24 15 46 27 49 27 4 0 42 18 86
40 44 22 84 40 89 40 5 0 28 9 52 19 23 11 65 27 92 36 28 10 57 20 65 23 8 3
20 6 25 7 6 2 42 12 80 23 82 24 191 48 255 57 25 3 53 8 63 11 10 3 35 7 55
9 20 2 71 7 112 11 156 16 443 6 645 -22 96 -13 337 -66 380 -84 11 -4 74 -27
140 -50 124 -44 309 -128 358 -162 15 -11 27 -17 27 -13 0 3 15 -5 33 -19 19
-15 37 -26 40 -26 18 0 253 -172 334 -245 64 -58 183 -178 210 -211 15 -20 40
-51 55 -68 15 -17 45 -56 65 -86 21 -30 41 -57 44 -60 13 -10 149 -254 149
-267 0 -7 4 -13 10 -13 5 0 9 -3 8 -7 -1 -7 10 -38 31 -88 16 -39 33 -80 32
-80 -1 0 8 -27 19 -60 11 -32 22 -68 25 -80 3 -11 11 -46 19 -78 8 -32 18 -80
21 -105 4 -26 9 -58 11 -72 2 -14 7 -52 10 -85 9 -84 11 -4429 2 -4490 -22
-146 -58 -250 -119 -345 -48 -73 -144 -172 -191 -196 -18 -9 -35 -20 -38 -24
-10 -15 -180 -79 -250 -95 -64 -15 -122 -26 -150 -29 -108 -14 -184 -20 -257
-20 -76 -1 -83 -3 -84 -21 -2 -48 -18 -230 -19 -230 -1 0 -3 -20 -5 -45 -2
-25 -5 -61 -8 -81 -3 -20 -2 -41 2 -47 4 -8 574 -10 2011 -9 l2005 2 -1 30
c-2 44 -14 193 -20 240 -2 22 -6 64 -8 93 -2 29 -6 55 -9 58 -3 3 -42 7 -88 9
-101 5 -219 15 -239 20 -8 3 -31 7 -50 9 -123 16 -287 75 -388 140 -60 38
-206 186 -184 186 4 0 2 4 -4 8 -12 7 -72 123 -79 152 -2 8 -11 40 -20 70 -9
30 -17 71 -18 90 -2 19 -5 40 -9 46 -10 15 -5 6183 5 6219 4 17 13 48 19 70 6
22 12 45 14 52 1 6 20 49 43 95 63 128 139 212 257 284 50 31 84 46 95 41 3
-1 13 4 22 11 27 22 196 67 297 78 25 3 56 7 70 10 27 5 123 11 206 13 33 1
51 5 51 14 0 6 4 39 8 72 7 65 10 92 19 200 4 39 9 87 12 108 l5 37 -8640 0
-8640 0 5 -50z"/>
</g>
</svg>
