<svg id="Layer_1" data-name="Layer 1" xmlns="http://www.w3.org/2000/svg" viewBox="0 0 432.38 211.68">
  <defs>
    <style>
      .cls-1 {
        fill: #323232;
      }
    </style>
  </defs>
  <path class="cls-1" d="M69.09,335.27V187.17c0-6.18-2.12-12.71-7.63-16.56-4.82-3.36-12.53-4.46-19.57-4.48l-1.15-10.75H473.11L472,166.13c-7,0-14.75,1.12-19.57,4.48-5.51,3.85-7.63,10.38-7.63,16.56h0l.08,148.51,0-.47c0,6.18,2.12,12.71,7.63,16.56,4.82,3.36,12.53,4.46,19.57,4.48L473.11,367H372.34l1-10.75c7.09,0,14.89-1.09,19.75-4.48,5.51-3.85,7.63-10.38,7.63-16.56l-.06,0V230.45c0-29.93-27.22-54.15-60.86-54.15v-.09c-33.64,0-60.86,24.22-60.86,54.15V335.27c0,6.18,2.12,12.71,7.63,16.56,4.82,3.36,12.53,4.46,19.57,4.48l1.15,10.75H206.51l1-10.75c7.09,0,14.89-1.09,19.75-4.48,5.51-3.85,7.63-10.38,7.63-16.56,0,0,0-104.82,0-104.82,0-29.93-27.22-54.15-60.86-54.15s-60.86,24.22-60.86,54.15V335.27c0,6.18,2.12,12.71,7.63,16.56,4.82,3.36,12.53,4.46,19.57,4.48l1.15,10.75H40.73l1-10.75c7.09,0,14.89-1.09,19.75-4.48,5.51-3.85,7.63-10.38,7.63-16.56" transform="translate(-40.73 -155.38)"/>
</svg>
